HIERARCHY
ROOT Hips
{
	OFFSET 54.119301 -7.314646 96.239098
	CHANNELS 6 Xposition Yposition Zposition Xrotation Yrotation Zrotation
	JOINT spine
	{
		OFFSET 0.000000 -0.467660 8.132492
		CHANNELS 3 Xrotation Yrotation Zrotation
		JOINT spine1
		{
			OFFSET 0.000000 -0.000001 10.349800
			CHANNELS 3 Xrotation Yrotation Zrotation
			JOINT spine2
			{
				OFFSET 0.000000 -0.000002 9.916992
				CHANNELS 3 Xrotation Yrotation Zrotation
				JOINT Neck
				{
					OFFSET 0.000000 -1.213904 25.460999
					CHANNELS 3 Xrotation Yrotation Zrotation
					JOINT Head
					{
						OFFSET 0.000000 -0.000001 7.692444
						CHANNELS 3 Xrotation Yrotation Zrotation
						End Site
						{
							OFFSET 0.000000 6.140627 18.619995
						}
					}
				}
				JOINT RightShoulder
				{
					OFFSET -4.175751 0.581444 10.709595
					CHANNELS 3 Xrotation Yrotation Zrotation
					JOINT RightArm
					{
						OFFSET 0.000000 -0.000002 14.046600
						CHANNELS 3 Xrotation Yrotation Zrotation
						JOINT RightArmRoll
						{
							OFFSET 0.000000 -0.000001 7.090988
							CHANNELS 3 Xrotation Yrotation Zrotation
							JOINT RightForeArm
							{
								OFFSET 0.000000 -0.000004 20.653503
								CHANNELS 3 Xrotation Yrotation Zrotation
								JOINT RightForeArmRoll
								{
									OFFSET 0.000000 -0.000001 7.957184
									CHANNELS 3 Xrotation Yrotation Zrotation
									JOINT RightHand
									{
										OFFSET 0.000000 -0.000003 15.968292
										CHANNELS 3 Xrotation Yrotation Zrotation
										End Site
										{
											OFFSET 0.000000 0.000000 0.100006
										}
									}
								}
							}
						}
					}
				}
				JOINT LeftShoulder
				{
					OFFSET 4.175751 0.581444 10.709595
					CHANNELS 3 Xrotation Yrotation Zrotation
					JOINT LeftArm
					{
						OFFSET 0.000000 -0.000002 14.046600
						CHANNELS 3 Xrotation Yrotation Zrotation
						JOINT LeftArmRoll
						{
							OFFSET 0.000000 -0.000001 7.090988
							CHANNELS 3 Xrotation Yrotation Zrotation
							JOINT LeftForeArm
							{
								OFFSET 0.000000 -0.000004 20.653503
								CHANNELS 3 Xrotation Yrotation Zrotation
								JOINT LeftForeArmRoll
								{
									OFFSET 0.000000 -0.000001 7.957184
									CHANNELS 3 Xrotation Yrotation Zrotation
									JOINT LeftHand
									{
										OFFSET 0.000000 -0.000003 15.968292
										CHANNELS 3 Xrotation Yrotation Zrotation
										End Site
										{
											OFFSET 0.000000 0.000000 0.100006
										}
									}
								}
							}
						}
					}
				}
			}
		}
	}
	JOINT RightUpLeg
	{
		OFFSET -7.208340 1.108840 -1.321823
		CHANNELS 3 Xrotation Yrotation Zrotation
		JOINT RightUpLegRoll
		{
			OFFSET 0.000000 -0.000003 18.723801
			CHANNELS 3 Xrotation Yrotation Zrotation
			JOINT RightLeg
			{
				OFFSET 0.000000 0.000004 -23.186600
				CHANNELS 3 Xrotation Yrotation Zrotation
				JOINT RightLegRoll
				{
					OFFSET 0.000000 -0.000004 23.262398
					CHANNELS 3 Xrotation Yrotation Zrotation
					JOINT RightFoot
					{
						OFFSET 0.000000 -0.000003 19.362106
						CHANNELS 3 Xrotation Yrotation Zrotation
						JOINT RightToeBase
						{
							OFFSET 0.000000 -0.000003 16.185699
							CHANNELS 3 Xrotation Yrotation Zrotation
							End Site
							{
								OFFSET 0.006859 0.903521 7.838623
							}
						}
					}
				}
			}
		}
	}
	JOINT LeftUpLeg
	{
		OFFSET 7.208340 1.108840 -1.321823
		CHANNELS 3 Xrotation Yrotation Zrotation
		JOINT LeftUpLegRoll
		{
			OFFSET 0.000000 -0.000003 18.723900
			CHANNELS 3 Xrotation Yrotation Zrotation
			JOINT LeftLeg
			{
				OFFSET 0.000000 -0.000004 23.186493
				CHANNELS 3 Xrotation Yrotation Zrotation
				JOINT LeftLegRoll
				{
					OFFSET 0.000000 -0.000004 23.477509
					CHANNELS 3 Xrotation Yrotation Zrotation
					JOINT LeftFoot
					{
						OFFSET 0.000000 -0.000003 19.147003
						CHANNELS 3 Xrotation Yrotation Zrotation
						JOINT LeftToeBase
						{
							OFFSET 0.000000 -0.000003 16.185699
							CHANNELS 3 Xrotation Yrotation Zrotation
							End Site
							{
								OFFSET -0.030746 0.903521 7.838623
							}
						}
					}
				}
			}
		}
	}
}
MOTION
Frames: 9
Frame Time: 0.041667
53.381401 -6.824701 96.206192 -3.478184 1.013530 -0.077213 -1.479896 -0.508255 0.054135 1.043485 -1.017311 0.099816 2.688663 -1.016040 0.111995 13.267236 3.143900 -3.249704 -2.146651 -3.733595 -3.083910 -19.121349 -57.757405 -22.605503 -43.060357 -117.557883 -17.962095 0.000000 0.000000 -0.000005 0.037334 -5.362121 -0.665367 0.000002 0.000006 -3.035581 -5.000227 -7.999342 0.000089 -16.258552 60.989751 19.246109 -41.876662 114.868605 30.121056 -0.000003 -0.000000 0.000007 0.068415 8.801267 1.022136 0.000003 -0.000000 3.035750 -5.000256 7.998923 -0.000135 -1.050093 -173.792032 3.429352 -179.999991 0.000006 -1.024004 171.273332 -1.945239 -0.550533 -0.000002 0.000001 -0.020278 68.223304 6.231541 3.859133 25.456957 -7.355616 -0.000001 -0.889587 172.335918 -1.986120 -0.000019 -0.000004 -0.941203 -12.150638 0.987818 0.702870 0.000004 0.000000 -0.124577 71.707711 -6.091094 -4.159869 25.459189 7.355614 -0.003369 
53.379601 -6.826648 96.201485 -3.476043 1.012963 -0.075376 -1.479819 -0.507985 0.054379 1.043644 -1.016771 0.099955 2.688824 -1.015491 0.112125 13.249764 3.148185 -3.251620 -2.127062 -3.735972 -3.085740 -19.135369 -57.744543 -22.622234 -43.062328 -117.583278 -17.869027 0.000001 0.000001 -0.000005 0.037307 -5.284760 -0.664956 0.000002 0.000006 -3.035850 -5.000231 -7.999342 0.000090 -16.271652 60.981281 19.261306 -41.871993 114.878140 30.073285 -0.000003 0.000001 0.000010 0.068353 8.777396 1.026562 0.000002 -0.000000 3.035739 -5.000254 7.998923 -0.000137 -1.057835 -173.789054 3.432670 -179.999991 0.000006 -1.024004 171.257978 -1.950101 -0.551813 -0.000002 0.000001 -0.020278 68.227545 6.233307 3.854633 25.456957 -7.355616 -0.000001 -0.897445 172.336929 -1.984937 -0.000019 -0.000004 -0.941204 -12.163240 0.987918 0.703625 0.000004 0.000000 -0.125491 71.714712 -6.090867 -4.160351 25.459190 7.355614 -0.003368 
53.388496 -6.828910 96.184395 -3.474032 1.012317 -0.073517 -1.479689 -0.507733 0.054660 1.043905 -1.016272 0.100146 2.689083 -1.014991 0.112308 13.232002 3.153167 -3.253639 -2.107206 -3.739087 -3.087649 -19.149450 -57.730740 -22.639087 -43.063458 -117.608344 -17.776797 -0.000000 0.000000 -0.000005 0.037322 -5.208600 -0.664702 0.000002 0.000005 -3.036087 -5.000226 -7.999343 0.000090 -16.285131 60.972860 19.276940 -41.866457 114.888618 30.026574 -0.000003 -0.000000 0.000005 0.068305 8.754626 1.030914 0.000003 -0.000000 3.035730 -5.000256 7.998922 -0.000137 -1.065665 -173.787060 3.436246 -179.999991 0.000006 -1.024004 171.242077 -1.953960 -0.551963 -0.000002 0.000001 -0.020278 68.231910 6.235154 3.849945 25.456957 -7.355613 -0.000001 -0.905263 172.336943 -1.983725 -0.000019 -0.000004 -0.941204 -12.175944 0.988056 0.704408 0.000004 0.000001 -0.126438 71.721706 -6.090605 -4.160927 25.459187 7.355617 -0.003369 
53.391396 -6.830329 96.191193 -3.472091 1.011620 -0.071645 -1.479527 -0.507495 0.054968 1.044223 -1.015801 0.100372 2.689403 -1.014512 0.112527 13.214042 3.158617 -3.255745 -2.087163 -3.742712 -3.089602 -19.163699 -57.716191 -22.656134 -43.062809 -117.633958 -17.683672 -0.000002 0.000001 -0.000003 0.037355 -5.133271 -0.664557 0.000002 0.000006 -3.036324 -5.000228 -7.999343 0.000091 -16.298877 60.964513 19.292897 -41.861304 114.899204 29.981710 -0.000004 0.000001 0.000010 0.068267 8.732627 1.035195 0.000004 -0.000001 3.035719 -5.000255 7.998923 -0.000137 -1.073566 -173.784082 3.439984 -179.999991 0.000006 -1.024004 171.225835 -1.958830 -0.553282 -0.000002 0.000002 -0.020279 68.236288 6.237074 3.845166 25.456957 -7.355614 0.000000 -0.913050 172.336956 -1.982486 -0.000019 -0.000004 -0.941204 -12.188743 0.988214 0.705211 0.000003 0.000001 -0.127408 71.728803 -6.090312 -4.161592 25.459187 7.355615 -0.003368 
53.372398 -6.830622 96.185890 -3.470199 1.010884 -0.069766 -1.479347 -0.507265 0.055291 1.044584 -1.015341 0.100620 2.689762 -1.014042 0.112767 13.195988 3.164341 -3.257886 -2.067014 -3.746638 -3.091596 -19.177955 -57.701329 -22.673224 -43.061822 -117.659448 -17.590843 -0.000002 0.000000 -0.000002 0.037403 -5.058411 -0.664477 0.000001 0.000007 -3.036529 -5.000227 -7.999343 0.000090 -16.312802 60.956242 19.309075 -41.856687 114.910010 29.938212 -0.000004 0.000002 0.000008 0.068238 8.711076 1.039450 0.000004 -0.000001 3.035709 -5.000254 7.998923 -0.000136 -1.081501 -173.781090 3.443819 -179.999991 0.000006 -1.024004 171.209374 -1.963684 -0.553597 -0.000003 0.000001 -0.020279 68.240878 6.238977 3.840375 25.456959 -7.355614 -0.000000 -0.920823 172.336984 -1.981239 -0.000020 -0.000004 -0.941204 -12.201646 0.988391 0.706027 0.000003 0.000001 -0.128391 71.735885 -6.090020 -4.162258 25.459185 7.355617 -0.003368 
53.374699 -6.832577 96.185875 -3.468322 1.010137 -0.067884 -1.479167 -0.507036 0.055618 1.044954 -1.014891 0.100872 2.690122 -1.013582 0.113012 13.177933 3.170136 -3.260029 -2.046837 -3.750632 -3.093589 -19.192335 -57.686343 -22.690423 -43.060695 -117.684870 -17.497997 -0.000001 0.000002 -0.000001 0.037453 -4.983668 -0.664413 0.000002 0.000006 -3.036747 -5.000226 -7.999342 0.000089 -16.326761 60.947957 19.325286 -41.851909 114.920733 29.894751 -0.000004 0.000000 0.000007 0.068207 8.689625 1.043689 0.000003 -0.000000 3.035690 -5.000255 7.998923 -0.000137 -1.089441 -173.778126 3.447683 -179.999991 0.000005 -1.024004 171.192872 -1.968537 -0.554928 -0.000002 0.000001 -0.020278 68.245379 6.240946 3.835498 25.456955 -7.355615 -0.000000 -0.928588 172.337994 -1.980020 -0.000019 -0.000004 -0.941204 -12.214451 0.988568 0.706843 0.000003 0.000000 -0.129377 71.742880 -6.089754 -4.162934 25.459183 7.355615 -0.003369 
53.368401 -6.826015 96.186195 -3.466420 1.009420 -0.066006 -1.478996 -0.506804 0.055936 1.045295 -1.014431 0.101115 2.690472 -1.013112 0.113246 13.159876 3.175793 -3.262156 -2.026723 -3.754487 -3.095567 -19.206625 -57.671577 -22.707531 -43.061033 -117.709609 -17.406437 0.000000 0.000001 -0.000001 0.037498 -4.908699 -0.664318 0.000001 0.000006 -3.036969 -5.000227 -7.999343 0.000088 -16.340642 60.939692 19.341393 -41.848555 114.930719 29.852445 -0.000004 0.000002 0.000009 0.068175 8.667966 1.047949 0.000005 -0.000000 3.035680 -5.000254 7.998923 -0.000135 -1.097364 -173.775135 3.451486 -179.999991 0.000006 -1.024004 171.176466 -1.972392 -0.555106 -0.000002 0.000002 -0.020278 68.249866 6.242873 3.830717 25.456957 -7.355616 -0.000000 -0.936364 172.338008 -1.978773 -0.000019 -0.000005 -0.941204 -12.227254 0.988735 0.707654 0.000003 0.000001 -0.130358 71.749969 -6.089457 -4.163600 25.459187 7.355618 -0.003368 
53.369598 -6.829107 96.184792 -3.464457 1.008733 -0.064138 -1.478847 -0.506562 0.056237 1.045604 -1.013951 0.101331 2.690772 -1.012633 0.113455 13.142016 3.181118 -3.264224 -2.006728 -3.757971 -3.097499 -19.220945 -57.657219 -22.724603 -43.060091 -117.735085 -17.312639 -0.000000 0.000001 -0.000002 0.037526 -4.833128 -0.664140 0.000001 0.000004 -3.037204 -5.000225 -7.999343 0.000088 -16.354243 60.931243 19.357190 -41.843238 114.941251 29.807000 -0.000001 -0.000001 0.000007 0.068132 8.645745 1.052249 0.000003 -0.000001 3.035659 -5.000255 7.998923 -0.000136 -1.105247 -173.772143 3.455174 -179.999991 0.000006 -1.024004 171.160320 -1.977246 -0.556429 -0.000002 0.000001 -0.020278 68.254237 6.244754 3.826032 25.456959 -7.355616 0.000000 -0.944161 172.338035 -1.977543 -0.000019 -0.000004 -0.941204 -12.240055 0.988882 0.708451 0.000002 0.000001 -0.131321 71.756963 -6.089187 -4.164274 25.459189 7.355615 -0.003368 
53.371700 -6.859847 96.179993 -3.462406 1.008107 -0.062286 -1.478728 -0.506305 0.056507 1.045834 -1.013441 0.101506 2.691001 -1.012113 0.113622 13.124252 3.185897 -3.266187 -1.986954 -3.760875 -3.099371 -19.234888 -57.643627 -22.741287 -43.062079 -117.759237 -17.220860 -0.000001 0.000000 -0.000003 0.037527 -4.756610 -0.663838 -0.000000 0.000004 -3.037451 -5.000231 -7.999341 0.000086 -16.367584 60.922829 19.372667 -41.837549 114.951660 29.759500 -0.000002 0.000001 0.000010 0.068083 8.622656 1.056623 0.000002 -0.000000 3.035650 -5.000253 7.998924 -0.000137 -1.113063 -173.770176 3.458678 -179.999991 0.000005 -1.024004 171.144610 -1.982101 -0.556744 -0.000002 0.000001 -0.020277 68.258595 6.246560 3.821432 25.456959 -7.355613 -0.000001 -0.951993 172.339046 -1.976356 -0.000019 -0.000004 -0.941204 -12.252758 0.989010 0.709228 0.000003 0.000000 -0.132258 71.763957 -6.088951 -4.164856 25.459187 7.355613 -0.003369 
